<svg width="14.000000" height="14.000000" viewBox="0 0 14 14" fill="none" xmlns="http://www.w3.org/2000/svg" xmlns:xlink="http://www.w3.org/1999/xlink">
	<desc>
			Created with Pixso.
	</desc>
	<defs/>
	<path id="icon" d="M9.68 10.74C8.66 11.53 7.38 12 6 12C2.68 12 0 9.31 0 6C0 2.68 2.68 0 6 0C9.31 0 12 2.68 12 6C12 7.39 11.53 8.66 10.74 9.68L13.77 12.71C14.07 13.01 14.07 13.48 13.78 13.77C13.48 14.07 13.01 14.07 12.71 13.78L9.68 10.74ZM10.5 6C10.5 8.49 8.48 10.5 6 10.5C3.51 10.5 1.5 8.49 1.5 6C1.5 3.51 3.51 1.5 6 1.5C8.48 1.5 10.5 3.51 10.5 6Z" fill="#868FA0" fill-opacity="1.000000" fill-rule="evenodd"/>
</svg>
