<svg width="12.000000" height="11.999962" viewBox="0 0 12 12" fill="none" xmlns="http://www.w3.org/2000/svg" xmlns:xlink="http://www.w3.org/1999/xlink">
	<desc>
			Created with Pixso.
	</desc>
	<defs/>
	<path id="icon" d="M6.75 0.75C6.75 0.33 6.41 0 6 0C5.58 0 5.25 0.33 5.25 0.75L5.25 5.24L0.75 5.24C0.33 5.24 0 5.58 0 5.99C0 6.41 0.33 6.74 0.75 6.74L5.25 6.74L5.25 11.25C5.25 11.66 5.58 12 6 12C6.41 12 6.75 11.66 6.75 11.25L6.75 6.74L11.25 6.74C11.66 6.74 12 6.41 12 5.99C12 5.58 11.66 5.24 11.25 5.24L6.75 5.24L6.75 0.75Z" fill="#FFFFFF" fill-opacity="1.000000" fill-rule="nonzero"/>
</svg>
